<svg width="40" height="40" viewBox="0 0 40 40" fill="none" xmlns="http://www.w3.org/2000/svg">
<path d="M36.6667 27.5002V32.5002C36.6667 35.0002 35 36.6668 32.5 36.6668H10C10.6833 36.6668 11.3833 36.5668 12.0333 36.3502C12.2167 36.2835 12.4 36.2168 12.5833 36.1335C13.1666 35.9002 13.7333 35.5668 14.2333 35.1335C14.3833 35.0168 14.55 34.8668 14.7 34.7168L14.7666 34.6502L26.1 23.3335H32.5C35 23.3335 36.6667 25.0002 36.6667 27.5002Z" stroke="#FF7A00" stroke-width="2" stroke-linecap="round" stroke-linejoin="round"/>
<path d="M8.01664 36.3667C7.01664 36.0667 6.06667 35.5167 5.28334 34.7167C4.48334 33.9334 3.9333 32.9834 3.6333 31.9834C4.2833 34.0667 5.93331 35.7167 8.01664 36.3667Z" stroke="#BC50FF" stroke-width="2" stroke-linecap="round" stroke-linejoin="round"/>
<path d="M30.6166 18.8164L26.1 23.3331L14.7666 34.6498C15.9333 33.4498 16.6666 31.7998 16.6666 29.9998V13.8998L21.1833 9.38311C22.9499 7.61644 25.3166 7.61644 27.0833 9.38311L30.6166 12.9164C32.3833 14.6831 32.3833 17.0498 30.6166 18.8164Z" stroke="#00D522" stroke-width="2" stroke-linecap="round" stroke-linejoin="round"/>
<path d="M10 31.6668C10.9205 31.6668 11.6667 30.9206 11.6667 30.0002C11.6667 29.0797 10.9205 28.3335 10 28.3335C9.07957 28.3335 8.33337 29.0797 8.33337 30.0002C8.33337 30.9206 9.07957 31.6668 10 31.6668Z" stroke="#2E2E2E" stroke-width="2" stroke-linecap="round" stroke-linejoin="round"/>
<path d="M16.6668 7.49967V29.9997C16.6668 31.7997 15.9335 33.4497 14.7668 34.6497L14.7002 34.7163C14.5502 34.8663 14.3835 35.0163 14.2335 35.133C13.7335 35.5663 13.1668 35.8997 12.5835 36.133C12.4001 36.2163 12.2168 36.283 12.0335 36.3497C11.3835 36.5663 10.6835 36.6663 10.0002 36.6663C9.55016 36.6663 9.10018 36.6163 8.66685 36.533C8.45018 36.483 8.23349 36.433 8.01683 36.3664C7.75016 36.283 7.50017 36.1997 7.25017 36.083C7.25017 36.0663 7.25016 36.0663 7.23349 36.083C6.76682 35.8497 6.31684 35.583 5.90018 35.2663L5.88349 35.2497C5.66683 35.083 5.46685 34.9163 5.28352 34.7163C5.10019 34.5163 4.91682 34.3164 4.73349 34.0997C4.41682 33.683 4.15017 33.233 3.91684 32.7663C3.93351 32.7497 3.93351 32.7497 3.91684 32.7497C3.91684 32.7497 3.91682 32.733 3.90016 32.7164C3.80016 32.483 3.71682 32.233 3.63348 31.983C3.56682 31.7663 3.51681 31.5497 3.46681 31.333C3.38347 30.8997 3.3335 30.4497 3.3335 29.9997V7.49967C3.3335 4.99967 5.00016 3.33301 7.50016 3.33301H12.5002C15.0002 3.33301 16.6668 4.99967 16.6668 7.49967Z" stroke="#6B0CA6" stroke-width="2" stroke-linecap="round" stroke-linejoin="round"/>
</svg>
